<svg width="104" height="104" viewBox="0 0 104 104" fill="none" xmlns="http://www.w3.org/2000/svg">
<path d="M98.6955 88.8597C98.6955 88.8469 98.6891 88.8341 98.6763 88.8277L98.4323 88.4174C98.4002 88.3598 98.3681 88.3149 98.3424 88.2636L96.4674 85.0843L71.8292 43.4141L63.4431 29.2355L60.3673 34.4211V34.466H60.3416L55.0506 43.4141L43.5502 62.8743L51.9363 77.0528L63.4431 57.599L77.2102 80.8859C77.2102 80.8923 77.2166 80.8923 77.2166 80.8987C77.2872 80.9949 77.3514 81.1038 77.4028 81.2128C77.5954 81.5717 77.6982 81.9884 77.6982 82.4178C77.6982 83.8921 76.4974 85.0843 75.027 85.0843H56.688L65.2153 99.4936H92.3514C96.3389 99.4936 99.5752 96.2695 99.5752 92.289C99.5688 91.0519 99.2542 89.8789 98.6955 88.8597Z" fill="#42526E"/>
<path d="M28.9483 85.0907C27.4714 85.0907 26.2771 83.8921 26.2771 82.4242C26.2771 81.9627 26.3927 81.5269 26.6046 81.1551C26.6431 81.0782 26.688 81.0077 26.733 80.9371V80.9307L29.0254 77.0656L32.1011 71.8737V71.8672L37.4115 62.8807L40.4872 57.6887L51.994 38.2285L54.2158 34.4723L60.3801 24.0436V9.8522H60.7654C61.5103 9.8522 62.1781 9.55094 62.6661 9.0702C63.1541 8.58947 63.4559 7.91644 63.4559 7.17931C63.4559 5.69864 62.2487 4.5 60.7718 4.5H43.2227C42.4842 4.5 41.81 4.80126 41.322 5.282C40.834 5.76274 40.5322 6.44218 40.5322 7.17931C40.5322 8.65998 41.7394 9.8522 43.2162 9.8522H43.6015V24.0436L32.1011 43.4974V43.5038L29.0254 48.6957L23.7086 57.6823L20.6328 62.8743L7.50147 85.0843L5.49805 88.4687C5.421 88.5969 5.34394 88.7251 5.27331 88.8597C4.72109 89.8789 4.40002 91.0519 4.40002 92.2954C4.40002 96.2759 7.63631 99.5 11.6239 99.5H65.2089L56.6815 85.0907H28.9483V85.0907Z" fill="#42526E"/>
</svg>
