<svg width="96" height="96" viewBox="0 0 96 96" fill="none" xmlns="http://www.w3.org/2000/svg">
<path d="M94.6954 84.8597C94.6954 84.8469 94.689 84.8341 94.6761 84.8277L94.4321 84.4175C94.4 84.3598 94.3679 84.3149 94.3422 84.2636L92.4673 81.0843L67.8291 39.4141L59.443 25.2355L56.3672 30.4211V30.466H56.3415L51.0504 39.4141L39.55 58.8743L47.9361 73.0528L59.443 53.599L73.21 76.8859C73.21 76.8923 73.2165 76.8923 73.2165 76.8987C73.2871 76.9949 73.3513 77.1038 73.4027 77.2128C73.5953 77.5718 73.698 77.9884 73.698 78.4179C73.698 79.8921 72.4973 81.0843 71.0268 81.0843H52.6878L61.2152 95.4936H88.3513C92.3388 95.4936 95.5751 92.2695 95.5751 88.289C95.5687 87.0519 95.2541 85.8789 94.6954 84.8597Z" fill="#F9AC00"/>
<path d="M24.9482 81.0907C23.4713 81.0907 22.277 79.8921 22.277 78.4242C22.277 77.9627 22.3925 77.5268 22.6044 77.1551C22.643 77.0782 22.6879 77.0077 22.7329 76.9371V76.9307L25.0252 73.0656L28.101 67.8737V67.8672L33.4113 58.8807L36.4871 53.6887L47.9939 34.2285L50.2157 30.4723L56.38 20.0436V5.8522H56.7653C57.5101 5.8522 58.178 5.55094 58.666 5.0702C59.154 4.58947 59.4558 3.91644 59.4558 3.17931C59.4558 1.69864 58.2486 0.5 56.7717 0.5H39.2225C38.4841 0.5 37.8099 0.801262 37.3219 1.282C36.8338 1.76274 36.5321 2.44218 36.5321 3.17931C36.5321 4.65998 37.7392 5.8522 39.2161 5.8522H39.6014V20.0436L28.101 39.4974V39.5038L25.0252 44.6957L19.7085 53.6823L16.6327 58.8743L3.50135 81.0843L1.49793 84.4687C1.42087 84.5969 1.34382 84.7251 1.27319 84.8597C0.720963 85.8789 0.399902 87.0518 0.399902 88.2954C0.399902 92.2759 3.63619 95.5 7.62376 95.5H61.2088L52.6814 81.0907H24.9482Z" fill="url(#paint0_linear)"/>
<defs>
<linearGradient id="paint0_linear" x1="22.2768" y1="93.9" x2="71.4881" y2="10.4528" gradientUnits="userSpaceOnUse">
<stop stop-color="#D7294E"/>
<stop offset="0.0999" stop-color="#DE3A43"/>
<stop offset="0.3199" stop-color="#ED592E"/>
<stop offset="0.4422" stop-color="#F26526"/>
<stop offset="1" stop-color="#F9AC00"/>
</linearGradient>
</defs>
</svg>
